<svg width="48" height="48" viewBox="0 0 48 48" fill="none" xmlns="http://www.w3.org/2000/svg">
<rect x="0.5" y="0.5" width="47" height="47" stroke="#D9D9D9"/>
<path d="M43.1245 21.8596C42.5409 20.7727 41.7392 19.9194 40.7203 19.3009C39.7011 18.6822 38.5151 18.3729 37.1627 18.3729C36.5881 18.3729 36.0461 18.4481 35.5367 18.5979C35.0269 18.7482 34.564 18.9683 34.1471 19.2588C33.7301 19.5496 33.3826 19.8914 33.1047 20.285H33.0213V13.8169C33.0213 13.1496 32.4866 12.6086 31.827 12.6086H29.9076C29.2481 12.6086 28.7133 13.1496 28.7133 13.8169V25.6557C28.7133 25.9193 28.7229 26.1768 28.7406 26.4292V27.0306C28.7406 27.0929 28.7351 27.1525 28.7322 27.2133C28.7377 27.3256 28.7414 27.44 28.7414 27.5574C28.7414 28.7434 28.4483 29.7047 28.0867 29.7047C27.725 29.7047 27.4319 28.7433 27.4319 27.5574C27.4319 27.5251 27.433 27.4936 27.4334 27.4616C27.433 27.4568 27.4322 27.4523 27.4319 27.4475C27.4308 27.4331 27.4303 27.4184 27.4303 27.404V23.5901C27.4303 22.4091 27.1524 21.3454 26.5965 20.3986C26.0406 19.4523 25.2528 18.7071 24.234 18.1632C23.2148 17.6198 22.0009 17.3477 20.5929 17.3477C19.8886 17.3477 19.2355 17.4277 18.6335 17.5868C18.0312 17.7463 17.4844 17.962 16.9938 18.2335C16.5026 18.5054 16.0717 18.8287 15.7012 19.2036H15.6456C15.2935 18.8287 14.8718 18.5054 14.381 18.2335C13.8898 17.962 13.3478 17.7462 12.755 17.5868C12.1618 17.4277 11.5135 17.3477 10.8095 17.3477C9.4011 17.3477 8.18726 17.6198 7.16844 18.1632C6.1492 18.7072 5.36619 19.4523 4.8199 20.3986C4.27311 21.3454 4 22.4091 4 23.5901V31.7472C4 32.7001 4.74571 33.4726 5.66569 33.4726H6.64005C7.56002 33.4726 8.30574 32.7001 8.30574 31.7472V30.4714C8.30615 30.4555 8.3081 30.44 8.3081 30.424V23.7307C8.3081 23.2624 8.41925 22.8357 8.64155 22.4513C8.86392 22.0673 9.174 21.7532 9.57259 21.5093C9.97085 21.2659 10.4203 21.1438 10.9206 21.1438C11.4209 21.1438 11.87 21.2659 12.2687 21.5093C12.6668 21.7531 12.9817 22.0672 13.2136 22.4513C13.4451 22.8357 13.561 23.2624 13.561 23.7307V30.424C13.561 30.44 13.563 30.4555 13.5634 30.4714V31.7472C13.5634 32.7001 14.3091 33.4726 15.2291 33.4726H16.2034C17.1234 33.4726 17.8691 32.7001 17.8691 31.7472V23.7307C17.8691 23.2624 17.9802 22.8357 18.2025 22.4513C18.425 22.0673 18.7351 21.7532 19.1338 21.5093C19.532 21.2659 19.9814 21.1438 20.4817 21.1438C20.982 21.1438 21.4268 21.2659 21.8158 21.5093C22.205 21.7531 22.515 22.0672 22.747 22.4513C22.9784 22.8357 23.0945 23.2624 23.0945 23.7307V29.7047C23.1468 30.4386 23.4089 30.9651 23.7198 31.4279C25.2225 33.6649 28.3107 33.8737 29.3391 32.9971C29.5629 32.8355 30.2387 32.3069 30.8713 31.4269C31.2988 31.8504 31.7825 32.2151 32.3264 32.5166C33.4751 33.1536 34.8184 33.4726 36.3565 33.4726C37.5609 33.4726 38.6309 33.285 39.5667 32.9102C40.5023 32.5354 41.2991 31.9964 41.9571 31.2933C42.6146 30.5904 43.1197 29.7609 43.4719 28.8048C43.8236 27.8488 44 26.8085 44 25.6837C44.0001 24.2216 43.7082 22.947 43.1245 21.8596ZM39.2055 27.863C38.9367 28.435 38.5614 28.885 38.0799 29.2126C37.5977 29.5408 37.0237 29.7047 36.3566 29.7047C35.6896 29.7047 35.1102 29.5408 34.6195 29.2126C34.1283 28.8849 33.7531 28.4349 33.4939 27.863C33.2342 27.2914 33.1047 26.6495 33.1047 25.9368C33.1047 25.2246 33.2342 24.5871 33.4939 24.0247C33.7531 23.4624 34.1283 23.0173 34.6195 22.689C35.1102 22.3613 35.6896 22.197 36.3566 22.197C37.0237 22.197 37.5977 22.3613 38.0799 22.689C38.5614 23.0172 38.9367 23.4623 39.2055 24.0247C39.4739 24.5871 39.6085 25.2246 39.6085 25.9368C39.6086 26.6495 39.4739 27.2914 39.2055 27.863Z" fill="#101010"/>
</svg>
