<svg width="48" height="48" viewBox="0 0 48 48" fill="none" xmlns="http://www.w3.org/2000/svg">
<rect x="0.5" y="0.5" width="47" height="47" stroke="#D9D9D9"/>
<path d="M21.4293 34.3574C22.3881 33.3985 22.8214 32.1203 22.917 30.7901C22.9648 30.1271 22.8734 29.4641 22.9153 28.8036C22.9614 28.0828 23.2104 27.3695 23.5087 26.7174C23.901 25.8608 24.4818 25.0939 25.1943 24.4786C25.9084 23.8617 26.7558 23.3974 27.6652 23.1418C28.8361 22.8132 30.0053 23.1174 31.1879 22.9641C31.6053 22.9096 32.0311 22.7922 32.4251 22.6472C32.5349 22.607 32.6421 22.5575 32.7536 22.5073C32.9514 22.4159 33.1467 22.3136 33.3378 22.2005C33.43 22.1452 33.5188 22.0915 33.6102 22.0295C33.8826 21.8443 34.1458 21.6389 34.3872 21.3967C36.537 19.2468 36.5379 15.7616 34.388 13.6117C32.2381 11.4618 28.7531 11.4635 26.6032 13.6125C26.361 13.8548 26.1556 14.118 25.9704 14.3895C25.9075 14.4792 25.8547 14.5689 25.7986 14.6603C25.6854 14.8514 25.5832 15.0467 25.4918 15.2445C25.4415 15.3559 25.3938 15.4649 25.3527 15.5739C25.2705 15.7926 25.2068 16.0156 25.1532 16.2419C25.1331 16.3257 25.1029 16.4087 25.087 16.5059C24.9579 17.3089 25.0811 18.1194 25.0786 18.9257C25.0753 19.7321 24.8783 20.4562 24.5522 21.1896C24.1776 22.0295 23.6219 22.7864 22.938 23.4016C22.254 24.0168 21.4393 24.4904 20.5609 24.7678C19.5962 25.0729 18.6776 25.0209 17.6835 25.0184C16.6333 25.0151 15.6049 25.2229 14.6964 25.7636C14.605 25.8197 14.512 25.875 14.4256 25.9354C14.1524 26.1223 13.8926 26.3251 13.6461 26.5707C11.4988 28.7181 11.4988 32.2016 13.6487 34.3515C15.7985 36.5014 19.2819 36.5014 21.4293 34.354V34.3574Z" fill="#470A7D"/>
<path d="M17.4656 22.964C20.4842 22.964 22.9312 20.5169 22.9312 17.4982C22.9312 14.4796 20.4842 12.0325 17.4656 12.0325C14.447 12.0325 12 14.4796 12 17.4982C12 20.5169 14.447 22.964 17.4656 22.964Z" fill="#BAE01B"/>
<path d="M30.5023 36C33.5209 36 35.9679 33.5529 35.9679 30.5343C35.9679 27.5156 33.5209 25.0685 30.5023 25.0685C27.4837 25.0685 25.0367 27.5156 25.0367 30.5343C25.0367 33.5529 27.4837 36 30.5023 36Z" fill="#BB80F7"/>
</svg>
