<svg width="168" height="48" viewBox="0 0 168 48" fill="none" xmlns="http://www.w3.org/2000/svg">
<rect x="0.5" y="0.5" width="167" height="47" stroke="#D9D9D9"/>
<path d="M70.8071 32.629C69.5772 32.629 68.473 32.3645 67.4928 31.8352C66.5124 31.3058 65.7361 30.5407 65.1629 29.5396C64.5896 28.5392 64.3033 27.3354 64.3033 25.9291V14.8396C64.3033 14.4956 64.5832 14.2168 64.9287 14.2168H65.9699C66.3154 14.2168 66.5954 14.4956 66.5954 14.8396V21.9337H66.6453C66.9275 21.4211 67.2968 20.9744 67.754 20.5936C68.2108 20.2134 68.7338 19.9157 69.324 19.7006C69.9134 19.4858 70.5325 19.3781 71.1802 19.3781C72.3599 19.3781 73.4144 19.6426 74.345 20.1719C75.2752 20.7016 76.0104 21.4499 76.5502 22.418C77.0898 23.3855 77.3602 24.5314 77.3602 25.8543C77.3602 26.8966 77.1983 27.8356 76.8741 28.671C76.5502 29.5067 76.0972 30.2217 75.516 30.8176C74.9341 31.4132 74.2454 31.8637 73.4479 32.17C72.6509 32.476 71.7704 32.629 70.8071 32.629ZM70.8071 30.6687C71.5878 30.6687 72.2978 30.4789 72.9376 30.0982C73.577 29.7177 74.0876 29.1798 74.47 28.485C74.8521 27.7903 75.0433 26.9634 75.0433 26.0036C75.0433 25.0772 74.8565 24.2666 74.4827 23.5715C74.1089 22.8768 73.6063 22.3309 72.9751 21.934C72.3436 21.537 71.6294 21.3384 70.8322 21.3384C70.0512 21.3384 69.3411 21.5288 68.7017 21.909C68.0619 22.2901 67.5555 22.8318 67.1817 23.5344C66.8079 24.2377 66.6212 25.069 66.6212 26.0283C66.6212 26.9714 66.8079 27.79 67.1817 28.4847C67.5555 29.1794 68.0619 29.7174 68.7017 30.0978C69.3408 30.4786 70.0426 30.6687 70.8071 30.6687Z" fill="#101010"/>
<path d="M86.7536 32.3319C85.3583 32.3319 84.1205 32.0715 83.0408 31.5503C81.9607 31.0292 81.1177 30.2933 80.5117 29.3416C79.905 28.3906 79.6021 27.2783 79.6021 26.0042C79.6021 24.7471 79.8598 23.618 80.3748 22.6173C80.8896 21.6162 81.6038 20.8267 82.5178 20.2476C83.4314 19.6685 84.4946 19.379 85.7073 19.379C87.0196 19.379 88.112 19.6603 88.984 20.2226C89.8563 20.7849 90.5079 21.5421 90.9402 22.4931C91.3719 23.4448 91.5879 24.507 91.5879 25.6817C91.5879 25.8638 91.5835 26.0542 91.5755 26.2525C91.5669 26.4512 91.5462 26.6244 91.5132 26.7737H82.8063C82.3876 26.7737 82.0829 27.1776 82.2044 27.5764C82.338 28.0149 82.542 28.4048 82.8165 28.7464C83.2482 29.2836 83.8008 29.6888 84.4736 29.9622C85.1465 30.235 85.8896 30.3715 86.7037 30.3715H89.3922C89.7377 30.3715 90.0176 30.6503 90.0176 30.9943V31.709C90.0176 32.0531 89.7377 32.3319 89.3922 32.3319H86.7536ZM82.7456 25.1605H88.5981C88.9824 25.1605 89.2707 24.8206 89.2175 24.4417C89.2045 24.3479 89.1889 24.2526 89.1708 24.1556C89.104 23.7999 88.9875 23.4527 88.8218 23.1134C88.6557 22.7744 88.4356 22.4681 88.1614 22.1953C87.8871 21.9222 87.5467 21.703 87.1398 21.5376C86.7326 21.3726 86.2551 21.2893 85.707 21.2893C85.1255 21.2893 84.6146 21.4011 84.1746 21.6244C83.734 21.8478 83.3563 22.1456 83.0408 22.5181C82.7252 22.89 82.484 23.3082 82.3183 23.7714C82.2448 23.9763 82.1841 24.1816 82.1367 24.3869C82.045 24.7813 82.3387 25.1605 82.7456 25.1605Z" fill="#101010"/>
<path d="M95.0561 32.3306C94.7106 32.3306 94.4307 32.0518 94.4307 31.7077V23.2733C94.4307 22.1487 94.75 21.268 95.3898 20.6309C96.0292 19.9941 96.9136 19.6754 98.0436 19.6754H100.035C100.38 19.6754 100.66 19.9542 100.66 20.2983V21.013C100.66 21.357 100.38 21.6358 100.035 21.6358H98.4674C97.9192 21.6358 97.4914 21.7935 97.184 22.1075C96.8764 22.4214 96.7228 22.8602 96.7228 23.4225V31.708C96.7228 32.0521 96.4428 32.3309 96.0973 32.3309L95.0561 32.3306Z" fill="#101010"/>
<path d="M103.402 32.3319C103.057 32.3319 102.777 32.0531 102.777 31.709V25.0119C102.777 23.8867 103.03 22.9027 103.537 22.0588C104.044 21.2151 104.745 20.5578 105.643 20.0861C106.54 19.6147 107.561 19.379 108.707 19.379C109.87 19.379 110.896 19.615 111.785 20.0861C112.673 20.5578 113.371 21.2151 113.878 22.0588C114.385 22.9024 114.638 23.8867 114.638 25.0119V31.709C114.638 32.0531 114.358 32.3319 114.013 32.3319H112.971C112.626 32.3319 112.346 32.0531 112.346 31.709V25.0363C112.346 24.276 112.175 23.6184 111.835 23.0636C111.494 22.5099 111.046 22.0838 110.489 21.786C109.932 21.4882 109.339 21.3393 108.707 21.3393C108.076 21.3393 107.482 21.4885 106.926 21.786C106.369 22.0838 105.92 22.5099 105.58 23.0636C105.239 23.6184 105.069 24.276 105.069 25.0363V31.709C105.069 32.0531 104.789 32.3319 104.444 32.3319H103.402Z" fill="#101010"/>
<path d="M124.256 32.6293C122.96 32.6293 121.814 32.3353 120.817 31.7486C119.821 31.1613 119.031 30.3674 118.45 29.3666C117.868 28.3655 117.578 27.2447 117.578 26.0041C117.578 24.7636 117.868 23.6431 118.45 22.6417C119.031 21.6412 119.821 20.8473 120.817 20.2596C121.814 19.6729 122.96 19.379 124.256 19.379C125.552 19.379 126.702 19.6729 127.707 20.2596C128.712 20.8473 129.502 21.6371 130.075 22.6299C130.648 23.6224 130.934 24.7474 130.934 26.0045C130.934 27.245 130.648 28.3659 130.075 29.3669C129.502 30.368 128.712 31.1619 127.707 31.7489C126.702 32.3353 125.552 32.6293 124.256 32.6293ZM124.256 30.669C125.136 30.669 125.901 30.4624 126.548 30.0487C127.196 29.6353 127.703 29.0771 128.068 28.3738C128.434 27.6708 128.617 26.881 128.617 26.0041C128.617 25.1272 128.434 24.3378 128.068 23.6345C127.703 22.9315 127.196 22.373 126.548 21.9596C125.901 21.5462 125.136 21.3393 124.256 21.3393C123.392 21.3393 122.632 21.5465 121.976 21.9596C121.32 22.3733 120.809 22.9318 120.443 23.6345C120.078 24.3378 119.895 25.1272 119.895 26.0041C119.895 26.881 120.078 27.6711 120.443 28.3738C120.809 29.0771 121.319 29.6356 121.976 30.0487C122.632 30.4621 123.392 30.669 124.256 30.669Z" fill="#101010"/>
<path d="M139.831 32.6283C138.684 32.6283 137.658 32.3923 136.753 31.9212C135.847 31.4495 135.141 30.7922 134.635 29.9486C134.128 29.1049 133.875 28.121 133.875 26.9954V20.2983C133.875 19.9542 134.155 19.6754 134.5 19.6754H135.567C135.913 19.6754 136.192 19.9542 136.192 20.2983V26.971C136.192 27.7319 136.358 28.3896 136.691 28.9437C137.169 29.7423 137.881 30.2745 138.827 30.5406C139.04 30.6008 139.261 30.6395 139.482 30.656C140.254 30.713 140.964 30.5679 141.612 30.2213C142.169 29.9235 142.617 29.4978 142.958 28.9437C143.298 28.3896 143.469 27.7316 143.469 26.971V20.2983C143.469 19.9542 143.749 19.6754 144.094 19.6754H145.161C145.506 19.6754 145.786 19.9542 145.786 20.2983V26.9954C145.786 28.121 145.528 29.1046 145.014 29.9486C144.499 30.7922 143.793 31.4495 142.895 31.9212C141.998 32.3923 140.977 32.6283 139.831 32.6283Z" fill="#101010"/>
<path d="M149.422 31.7081V23.2739V14.8396C149.422 14.4956 149.701 14.2168 150.047 14.2168H151.088C151.434 14.2168 151.714 14.4956 151.714 14.8396V31.7081C151.714 32.0522 151.434 32.331 151.088 32.331H150.047C149.701 32.331 149.422 32.0522 149.422 31.7081Z" fill="#101010"/>
<path d="M155.353 31.7081V14.8396C155.353 14.4956 155.633 14.2168 155.979 14.2168H157.02C157.366 14.2168 157.646 14.4956 157.646 14.8396V31.7081C157.646 32.0522 157.366 32.331 157.02 32.331H155.979C155.633 32.331 155.353 32.0522 155.353 31.7081Z" fill="#101010"/>
<path d="M162.455 17.666C162.04 17.666 161.678 17.5136 161.371 17.2073C161.063 16.9012 160.91 16.5414 160.91 16.1276C160.91 15.7142 161.063 15.3546 161.371 15.0486C161.678 14.7426 162.04 14.5893 162.455 14.5893C162.87 14.5893 163.231 14.7426 163.539 15.0486C163.846 15.355 164 15.7145 164 16.1276C164 16.5414 163.846 16.9012 163.539 17.2073C163.231 17.5136 162.87 17.666 162.455 17.666ZM161.284 31.7087V20.2989C161.284 19.9549 161.564 19.6761 161.909 19.6761H162.976C163.321 19.6761 163.601 19.9549 163.601 20.2989V31.7087C163.601 32.0527 163.321 32.3315 162.976 32.3315H161.909C161.564 32.3315 161.284 32.0527 161.284 31.7087Z" fill="#101010"/>
<path d="M8.33938 32.3314C7.99962 32.3314 7.72412 32.057 7.72412 31.7187V24.8122C7.72412 23.7703 7.96908 22.8316 8.45932 21.9962C8.94923 21.1611 9.65102 20.5034 10.565 20.0235C11.4783 19.5435 12.5667 19.304 13.8293 19.304C14.4605 19.304 15.0417 19.3744 15.5736 19.515C16.1049 19.6554 16.591 19.8458 17.0313 20.0856C17.4712 20.3257 17.8492 20.6108 18.1651 20.9419H18.215C18.5471 20.6112 18.9333 20.3257 19.3736 20.0856C19.8136 19.8458 20.3038 19.6557 20.8437 19.515C21.3833 19.3747 21.9689 19.304 22.6007 19.304C23.8627 19.304 24.9514 19.5439 25.865 20.0235C26.7787 20.5034 27.4846 21.1611 27.9831 21.9962C28.4816 22.8319 28.7307 23.7706 28.7307 24.8122V31.7187C28.7307 32.057 28.4552 32.3314 28.1155 32.3314H25.4585C25.1187 32.3314 24.8432 32.057 24.8432 31.7187V24.9364C24.8432 24.523 24.7392 24.1469 24.5318 23.8073C24.3237 23.4683 24.0457 23.1911 23.697 22.976C23.348 22.7613 22.9494 22.6535 22.5008 22.6535C22.0523 22.6535 21.6492 22.7613 21.2923 22.976C20.9347 23.1911 20.6567 23.4683 20.4575 23.8073C20.258 24.1466 20.1585 24.523 20.1585 24.9364V31.7187C20.1585 32.057 19.883 32.3314 19.5432 32.3314H16.911C16.5713 32.3314 16.2958 32.057 16.2958 31.7187V24.9364C16.2958 24.523 16.1917 24.1469 15.9843 23.8073C15.7763 23.4683 15.4941 23.1911 15.1371 22.976C14.7796 22.7613 14.3771 22.6535 13.9286 22.6535C13.48 22.6535 13.0773 22.7613 12.72 22.976C12.3624 23.1911 12.0847 23.4683 11.8852 23.8073C11.6858 24.1466 11.5862 24.523 11.5862 24.9364V31.7187C11.5862 32.057 11.3107 32.3314 10.9709 32.3314H8.33938Z" fill="#101010"/>
<path d="M38.2726 32.3314C36.8274 32.3314 35.5565 32.0627 34.4602 31.5251C33.3636 30.9879 32.5123 30.243 31.9059 29.2917C31.2993 28.3407 30.9964 27.2363 30.9964 25.979C30.9964 24.5895 31.2869 23.3983 31.8684 22.4058C32.4496 21.413 33.2265 20.6482 34.1984 20.1103C35.1702 19.573 36.2455 19.304 37.4255 19.304C38.7711 19.304 39.8963 19.5854 40.8017 20.1474C41.7071 20.71 42.3924 21.4754 42.8575 22.4429C43.3223 23.4107 43.5551 24.5147 43.5551 25.7556C43.5551 25.9707 43.5427 26.2235 43.5176 26.5125C43.5138 26.5574 43.5096 26.6008 43.5058 26.6426C43.4753 26.9572 43.2106 27.1951 42.8931 27.1951H36.0286C35.502 27.1951 35.2173 27.8119 35.5609 28.2092C35.5838 28.2355 35.607 28.2615 35.6312 28.2868C35.9134 28.5846 36.2707 28.8042 36.7027 28.9445C37.1344 29.0849 37.616 29.1555 38.1479 29.1555H41.445C41.7848 29.1555 42.0603 29.4298 42.0603 29.7682V31.719C42.0603 32.0574 41.7848 32.3317 41.445 32.3317L38.2726 32.3314ZM35.7537 24.7878H39.0737C39.4774 24.7878 39.7716 24.407 39.6683 24.0183C39.6018 23.7706 39.4977 23.5513 39.3568 23.3606C39.2156 23.1709 39.0536 23.0052 38.871 22.8645C38.6878 22.7245 38.4762 22.6127 38.2357 22.5294C37.9946 22.447 37.7248 22.4055 37.4258 22.4055C37.0437 22.4055 36.7033 22.4717 36.4043 22.6041C36.1052 22.7365 35.8558 22.9143 35.6567 23.1376C35.4572 23.3606 35.3035 23.6176 35.1957 23.9065C35.1868 23.9306 35.1779 23.9549 35.1693 23.9793C35.028 24.3744 35.3328 24.7878 35.7537 24.7878Z" fill="#101010"/>
<path d="M52.179 32.6294C50.8664 32.6294 49.7326 32.3773 48.7776 31.8726C47.8222 31.3683 47.087 30.6817 46.5723 29.8131C46.0573 28.9447 45.7999 27.9814 45.7999 26.9223V20.2144C45.7999 19.8761 46.0754 19.6018 46.4152 19.6018H49.0474C49.3871 19.6018 49.6626 19.8761 49.6626 20.2144V26.8228C49.6626 27.2695 49.7705 27.6791 49.9865 28.0511C50.2021 28.4236 50.4974 28.7211 50.8712 28.9448C51.245 29.1681 51.6725 29.2793 52.1545 29.2793C52.6193 29.2793 53.0392 29.1681 53.413 28.9448C53.7868 28.7214 54.0814 28.4236 54.2977 28.0511C54.5134 27.6791 54.6216 27.2695 54.6216 26.8228V20.2144C54.6216 19.8761 54.8971 19.6018 55.2368 19.6018H57.869C58.2088 19.6018 58.4843 19.8761 58.4843 20.2144V26.922C58.4843 27.981 58.2352 28.9444 57.7367 29.8128C57.2385 30.6814 56.5195 31.3679 55.5811 31.8723C54.6416 32.3772 53.5078 32.6294 52.179 32.6294Z" fill="#101010"/>
</svg>
