<svg width="134" height="48" viewBox="0 0 134 48" fill="none" xmlns="http://www.w3.org/2000/svg">
<rect x="0.5" y="0.5" width="133" height="47" stroke="#D9D9D9"/>
<path d="M23.9177 24.575V33.3931C23.9177 34.7946 22.758 35.9705 21.3315 35.9705C20.1718 35.9705 19.1908 35.1562 18.8787 34.0713C17.0947 35.2472 14.954 35.9705 12.6355 35.9705C6.43674 35.9705 1.39771 30.8607 1.39771 24.575C1.39771 18.2892 6.43674 13.1343 12.6355 13.1343C18.8342 13.1343 23.9177 18.2441 23.9177 24.575ZM18.7897 24.575C18.7897 21.1381 16.0247 18.3343 12.6363 18.3343C9.2478 18.3343 6.48203 21.1381 6.48203 24.575C6.48203 28.0118 9.24699 30.8156 12.6363 30.8156C16.0255 30.8156 18.7897 28.0118 18.7897 24.575Z" fill="#470A7D"/>
<path d="M47.7745 6.62256V24.5745C47.7745 30.8603 42.7354 35.9701 36.4922 35.9701C30.249 35.9701 25.2545 30.8603 25.2545 24.5745C25.2545 18.2888 30.2935 13.1338 36.4922 13.1338C38.7663 13.1338 40.9069 13.812 42.6456 14.988V6.62256C42.6456 5.17597 43.8053 4 45.1874 4C46.5695 4 47.7745 5.17597 47.7745 6.62256ZM42.6465 24.5753C42.6465 21.1385 39.8815 18.3347 36.493 18.3347C33.1046 18.3347 30.3388 21.1385 30.3388 24.5753C30.3388 28.0122 33.1038 30.816 36.493 30.816C39.8823 30.816 42.6465 28.0122 42.6465 24.5753Z" fill="#470A7D"/>
<path d="M71.6312 24.575V33.3931C71.6312 34.7946 70.4715 35.9705 69.045 35.9705C67.8853 35.9705 66.9044 35.1562 66.5922 34.0713C64.8082 35.2472 62.6676 35.9705 60.349 35.9705C54.1503 35.9705 49.1112 30.8607 49.1112 24.575C49.1112 18.2892 54.1503 13.1343 60.349 13.1343C66.5477 13.1343 71.6312 18.2441 71.6312 24.575ZM66.5032 24.575C66.5032 21.1381 63.7383 18.3343 60.3498 18.3343C56.9613 18.3343 54.1956 21.1381 54.1956 24.575C54.1956 28.0118 56.9605 30.8156 60.3498 30.8156C63.7391 30.8156 66.5032 28.0118 66.5032 24.575Z" fill="#470A7D"/>
<path d="M101.374 22.4494V33.3923C101.374 34.7937 100.214 35.9697 98.7875 35.9697C97.361 35.9697 96.2458 34.7937 96.2458 33.3923C96.2458 33.3923 96.2458 22.2681 96.2902 22.1779C96.2902 21.5448 96.0226 18.3343 93.2131 18.3343C90.2258 18.3343 90.2258 21.7712 90.2258 22.1779V33.3923C90.2258 34.7937 89.0661 35.9697 87.6395 35.9697C86.213 35.9697 85.0533 34.7937 85.0533 33.3923V22.1779C85.0533 21.7712 85.0533 18.3343 82.0659 18.3343C79.0786 18.3343 78.9888 21.5448 78.9888 22.1779C79.0333 22.2681 79.0333 33.3923 79.0333 33.3923C79.0333 34.7937 77.8736 35.9697 76.4471 35.9697C75.0205 35.9697 73.9053 34.7937 73.9053 33.3923V22.4494C73.9053 21.8163 73.3699 13.1343 82.0659 13.1343C84.6522 13.1343 86.4362 14.0388 87.6403 15.1688C88.8445 14.038 90.584 13.1343 93.2147 13.1343C101.911 13.1343 101.375 21.8163 101.375 22.4494H101.374Z" fill="#470A7D"/>
<path d="M122.778 29.051C122.778 32.7142 119.745 35.7886 116.133 35.7886H106.591C105.209 35.7886 104.049 34.6127 104.049 33.2112C104.049 31.8097 105.209 30.5886 106.591 30.5886H116.133C116.535 30.5886 116.936 30.4533 117.203 30.1368C117.515 29.8653 117.649 29.4586 117.649 29.051C117.649 28.2826 117.114 27.6946 116.4 27.6044C114.171 27.2879 111.317 26.9262 109.087 26.6548C105.832 26.248 103.379 23.4442 103.379 20.0976C103.379 16.3441 106.367 13.3599 110.024 13.3599H118.853C120.28 13.3599 121.439 14.4908 121.439 15.9374C121.439 17.384 120.28 18.5148 118.853 18.5148H110.024C109.176 18.5148 108.463 19.2381 108.463 20.0976C108.463 20.8209 108.998 21.454 109.756 21.545L117.025 22.4495C120.325 22.8563 122.777 25.7052 122.777 29.0518L122.778 29.051Z" fill="#470A7D"/>
</svg>
